<svg xmlns="http://www.w3.org/2000/svg" xmlns:xlink="http://www.w3.org/1999/xlink" width="1080" zoomAndPan="magnify" viewBox="0 0 810 1012.49997" height="1350" preserveAspectRatio="xMidYMid meet"><defs><clipPath id="9107bb29f9"><path d="M 219.519531 488 L 420 488 L 420 688.890625 L 219.519531 688.890625 Z M 219.519531 488 "></path></clipPath><clipPath id="c07b222353"><path d="M 421 484 L 590.585938 484 L 590.585938 685 L 421 685 Z M 421 484 "></path></clipPath><clipPath id="e56bfaa312"><path d="M 286 323.070312 L 488 323.070312 L 488 493 L 286 493 Z M 286 323.070312 "></path></clipPath></defs><g id="a97b49f700"><g clip-rule="nonzero" clip-path="url(#9107bb29f9)"><path style=" stroke:none;fill-rule:nonzero;fill:#725ac1;fill-opacity:1;" d="M 279.65625 512.761719 L 279.65625 520.089844 L 236.261719 520.089844 C 227.027344 520.089844 219.519531 527.601562 219.519531 536.832031 L 219.519531 672.082031 C 219.519531 681.3125 227.027344 688.824219 236.261719 688.824219 L 371.507812 688.824219 C 380.742188 688.824219 388.25 681.3125 388.25 672.082031 L 388.25 628.785156 L 395.625 628.785156 C 408.929688 628.785156 419.75 617.960938 419.75 604.660156 L 419.75 604.253906 C 419.75 590.949219 408.929688 580.128906 395.625 580.128906 L 388.25 580.128906 L 388.25 536.832031 C 388.25 527.601562 380.742188 520.089844 371.507812 520.089844 L 328.152344 520.089844 L 328.152344 512.761719 C 328.152344 499.5 317.367188 488.714844 304.105469 488.714844 L 303.703125 488.714844 C 290.445312 488.714844 279.65625 499.5 279.65625 512.761719 Z M 287.738281 512.761719 C 287.738281 503.957031 294.898438 496.796875 303.703125 496.796875 L 304.105469 496.796875 C 312.910156 496.796875 320.074219 503.957031 320.074219 512.761719 L 320.074219 524.132812 C 320.074219 526.363281 321.941406 528.171875 324.171875 528.171875 L 371.507812 528.171875 C 376.285156 528.171875 380.167969 532.058594 380.167969 536.832031 L 380.167969 584.167969 C 380.167969 586.398438 381.976562 588.210938 384.210938 588.210938 L 395.625 588.210938 C 404.472656 588.210938 411.671875 595.40625 411.671875 604.253906 L 411.671875 604.660156 C 411.671875 613.507812 404.472656 620.703125 395.625 620.703125 L 384.210938 620.703125 C 381.976562 620.703125 380.167969 622.511719 380.167969 624.746094 L 380.167969 672.082031 C 380.167969 676.855469 376.285156 680.738281 371.507812 680.738281 L 236.261719 680.738281 C 231.484375 680.738281 227.601562 676.855469 227.601562 672.082031 L 227.601562 536.832031 C 227.601562 532.058594 231.484375 528.171875 236.261719 528.171875 L 283.597656 528.171875 C 283.632812 528.171875 283.664062 528.171875 283.695312 528.171875 C 285.929688 528.171875 287.738281 526.363281 287.738281 524.132812 Z M 287.738281 512.761719 "></path></g><g clip-rule="nonzero" clip-path="url(#c07b222353)"><path style=" stroke:none;fill-rule:nonzero;fill:#725ac1;fill-opacity:1;" d="M 590.445312 532.839844 C 590.445312 523.605469 582.933594 516.09375 573.699219 516.09375 L 530.398438 516.09375 L 530.398438 508.71875 C 530.398438 495.414062 519.574219 484.589844 506.269531 484.589844 L 505.863281 484.589844 C 492.558594 484.589844 481.734375 495.414062 481.734375 508.71875 L 481.734375 516.09375 L 438.429688 516.09375 C 429.195312 516.09375 421.6875 523.605469 421.6875 532.839844 L 421.6875 580.183594 C 421.6875 582.414062 423.496094 584.222656 425.726562 584.222656 L 440.3125 584.222656 C 449.160156 584.222656 456.359375 591.421875 456.359375 600.269531 L 456.359375 600.679688 C 456.359375 609.527344 449.160156 616.722656 440.3125 616.722656 L 425.726562 616.722656 C 423.496094 616.722656 421.6875 618.535156 421.6875 620.765625 L 421.6875 668.109375 C 421.6875 677.34375 429.195312 684.855469 438.429688 684.855469 L 573.699219 684.855469 C 582.933594 684.855469 590.445312 677.34375 590.445312 668.109375 Z M 582.363281 668.109375 C 582.363281 672.886719 578.476562 676.773438 573.699219 676.773438 L 438.429688 676.773438 C 433.652344 676.773438 429.765625 672.886719 429.765625 668.109375 L 429.765625 624.808594 L 440.3125 624.808594 C 453.617188 624.808594 464.441406 613.980469 464.441406 600.679688 L 464.441406 600.269531 C 464.441406 586.964844 453.617188 576.140625 440.3125 576.140625 L 429.765625 576.140625 L 429.765625 532.839844 C 429.765625 528.0625 433.652344 524.175781 438.429688 524.175781 L 485.773438 524.175781 C 488.003906 524.175781 489.8125 522.367188 489.8125 520.136719 L 489.8125 508.71875 C 489.8125 499.871094 497.015625 492.671875 505.863281 492.671875 L 506.269531 492.671875 C 515.117188 492.671875 522.316406 499.871094 522.316406 508.71875 L 522.316406 520.136719 C 522.316406 522.367188 524.125 524.175781 526.355469 524.175781 L 573.699219 524.175781 C 578.476562 524.175781 582.363281 528.0625 582.363281 532.839844 Z M 582.363281 668.109375 "></path></g><path style=" stroke:none;fill-rule:nonzero;fill:#725ac1;fill-opacity:1;" d="M 517.746094 589.390625 C 530.238281 589.390625 540.402344 578.933594 540.402344 566.078125 C 540.402344 553.222656 530.238281 542.765625 517.746094 542.765625 C 505.257812 542.765625 495.09375 553.222656 495.09375 566.078125 C 495.09375 578.933594 505.257812 589.390625 517.746094 589.390625 Z M 517.746094 550.847656 C 525.78125 550.847656 532.320312 557.679688 532.320312 566.078125 C 532.320312 574.476562 525.78125 581.308594 517.746094 581.308594 C 509.710938 581.308594 503.175781 574.476562 503.175781 566.078125 C 503.175781 557.679688 509.710938 550.847656 517.746094 550.847656 Z M 517.746094 550.847656 "></path><path style=" stroke:none;fill-rule:nonzero;fill:#725ac1;fill-opacity:1;" d="M 557.445312 636.097656 C 557.367188 634.417969 555.246094 594.933594 529.699219 594.140625 C 520.890625 593.863281 513.125 593.957031 506.046875 594.089844 C 479.371094 594.609375 479.273438 634.828125 479.285156 636.519531 C 479.285156 644.933594 500.535156 646.699219 518.367188 646.699219 C 536.195312 646.699219 557.449219 644.933594 557.449219 636.519531 C 557.449219 636.480469 557.449219 636.441406 557.449219 636.398438 C 557.449219 636.300781 557.449219 636.199219 557.445312 636.097656 Z M 518.367188 638.617188 C 501.214844 638.617188 490.535156 636.519531 487.398438 635.105469 C 487.636719 628.707031 489.636719 602.496094 506.203125 602.171875 C 513.175781 602.039062 520.816406 601.949219 529.449219 602.21875 C 545.453125 602.714844 548.71875 628.855469 549.269531 635.132812 C 546.054688 636.546875 535.40625 638.617188 518.367188 638.617188 Z M 518.367188 638.617188 "></path><path style=" stroke:none;fill-rule:nonzero;fill:#725ac1;fill-opacity:1;" d="M 308.105469 593.421875 C 320.597656 593.421875 330.757812 582.964844 330.757812 570.109375 C 330.757812 557.253906 320.597656 546.796875 308.105469 546.796875 C 295.613281 546.796875 285.453125 557.253906 285.453125 570.109375 C 285.453125 582.964844 295.613281 593.421875 308.105469 593.421875 Z M 308.105469 554.878906 C 316.140625 554.878906 322.679688 561.710938 322.679688 570.109375 C 322.679688 578.507812 316.140625 585.339844 308.105469 585.339844 C 300.070312 585.339844 293.53125 578.507812 293.53125 570.109375 C 293.53125 561.710938 300.070312 554.878906 308.105469 554.878906 Z M 308.105469 554.878906 "></path><path style=" stroke:none;fill-rule:nonzero;fill:#725ac1;fill-opacity:1;" d="M 296.402344 598.125 C 269.726562 598.640625 269.632812 638.859375 269.640625 640.550781 C 269.640625 648.964844 290.894531 650.730469 308.722656 650.730469 C 326.554688 650.730469 347.804688 648.964844 347.804688 640.550781 C 347.804688 640.511719 347.804688 640.472656 347.804688 640.433594 C 347.808594 640.332031 347.808594 640.230469 347.804688 640.128906 C 347.722656 638.449219 345.605469 598.964844 320.054688 598.171875 C 311.25 597.898438 303.480469 597.988281 296.402344 598.125 Z M 339.628906 639.164062 C 336.414062 640.578125 325.761719 642.648438 308.722656 642.648438 C 291.570312 642.648438 280.894531 640.550781 277.753906 639.136719 C 277.996094 632.734375 279.992188 606.527344 296.5625 606.203125 C 303.535156 606.070312 311.175781 605.980469 319.804688 606.25 C 335.808594 606.746094 339.074219 632.886719 339.628906 639.164062 Z M 339.628906 639.164062 "></path><g clip-rule="nonzero" clip-path="url(#e56bfaa312)"><path style=" stroke:none;fill-rule:nonzero;fill:#725ac1;fill-opacity:1;" d="M 423.566406 492.710938 L 471.152344 492.710938 C 480.421875 492.710938 487.960938 485.171875 487.960938 475.902344 L 487.960938 339.945312 C 487.960938 330.675781 480.421875 323.136719 471.152344 323.136719 L 335.191406 323.136719 C 325.925781 323.136719 318.386719 330.675781 318.386719 339.945312 L 318.386719 383.488281 L 310.949219 383.488281 C 297.589844 383.488281 286.71875 394.359375 286.71875 407.71875 L 286.71875 408.128906 C 286.71875 421.488281 297.589844 432.359375 310.949219 432.359375 L 318.386719 432.359375 L 318.386719 475.902344 C 318.386719 485.171875 325.925781 492.710938 335.191406 492.710938 L 382.777344 492.710938 C 385.011719 492.710938 386.820312 490.902344 386.820312 488.671875 L 386.820312 474.007812 C 386.820312 465.105469 394.0625 457.859375 402.96875 457.859375 L 403.375 457.859375 C 412.28125 457.859375 419.527344 465.105469 419.527344 474.007812 L 419.527344 488.671875 C 419.527344 490.902344 421.335938 492.710938 423.566406 492.710938 Z M 403.375 449.777344 L 402.96875 449.777344 C 389.605469 449.777344 378.738281 460.648438 378.738281 474.007812 L 378.738281 484.628906 L 335.191406 484.628906 C 330.382812 484.628906 326.46875 480.714844 326.46875 475.902344 L 326.46875 428.316406 C 326.46875 426.085938 324.65625 424.277344 322.425781 424.277344 L 310.949219 424.277344 C 302.046875 424.277344 294.800781 417.03125 294.800781 408.128906 L 294.800781 407.71875 C 294.800781 398.816406 302.046875 391.570312 310.949219 391.570312 L 322.425781 391.570312 C 324.65625 391.570312 326.46875 389.761719 326.46875 387.527344 L 326.46875 339.945312 C 326.46875 335.132812 330.382812 331.21875 335.191406 331.21875 L 471.152344 331.21875 C 475.964844 331.21875 479.878906 335.132812 479.878906 339.945312 L 479.878906 475.902344 C 479.878906 480.714844 475.964844 484.628906 471.152344 484.628906 L 427.605469 484.628906 L 427.605469 474.007812 C 427.605469 460.648438 416.738281 449.777344 403.375 449.777344 Z M 403.375 449.777344 "></path></g><path style=" stroke:none;fill-rule:nonzero;fill:#725ac1;fill-opacity:1;" d="M 398.816406 384.441406 C 411.308594 384.441406 421.472656 373.980469 421.472656 361.128906 C 421.472656 348.273438 411.308594 337.8125 398.816406 337.8125 C 386.324219 337.8125 376.160156 348.273438 376.160156 361.128906 C 376.160156 373.980469 386.324219 384.441406 398.816406 384.441406 Z M 398.816406 345.894531 C 406.851562 345.894531 413.390625 352.730469 413.390625 361.128906 C 413.390625 369.527344 406.851562 376.355469 398.816406 376.355469 C 390.78125 376.355469 384.242188 369.527344 384.242188 361.128906 C 384.242188 352.730469 390.78125 345.894531 398.816406 345.894531 Z M 398.816406 345.894531 "></path><path style=" stroke:none;fill-rule:nonzero;fill:#725ac1;fill-opacity:1;" d="M 438.515625 431.570312 C 438.515625 431.527344 438.515625 431.488281 438.515625 431.449219 C 438.519531 431.347656 438.519531 431.246094 438.511719 431.144531 C 438.433594 429.464844 436.316406 389.984375 410.765625 389.1875 C 401.960938 388.914062 394.195312 389.003906 387.117188 389.140625 C 360.4375 389.660156 360.34375 429.878906 360.351562 431.570312 C 360.351562 439.984375 381.605469 441.75 399.433594 441.75 C 417.265625 441.75 438.515625 439.984375 438.515625 431.570312 Z M 399.433594 433.667969 C 382.285156 433.667969 371.605469 431.566406 368.464844 430.152344 C 368.707031 423.753906 370.703125 397.542969 387.273438 397.222656 C 394.246094 397.085938 401.882812 396.996094 410.515625 397.265625 C 426.523438 397.765625 429.789062 423.90625 430.339844 430.179688 C 427.125 431.597656 416.472656 433.667969 399.433594 433.667969 Z M 399.433594 433.667969 "></path></g></svg>