<svg xmlns="http://www.w3.org/2000/svg" xmlns:xlink="http://www.w3.org/1999/xlink" width="1080" zoomAndPan="magnify" viewBox="0 0 810 1012.49997" height="1350" preserveAspectRatio="xMidYMid meet"><defs><clipPath id="3e88268321"><path d="M 207 342.878906 L 602 342.878906 L 602 668.96875 L 207 668.96875 Z M 207 342.878906 "></path></clipPath></defs><g id="b5fc1187b2"><g clip-rule="nonzero" clip-path="url(#3e88268321)"><path style=" stroke:none;fill-rule:evenodd;fill:#725ac1;fill-opacity:1;" d="M 408.183594 565.363281 C 406.214844 565.363281 404.347656 566.429688 403.335938 568.152344 L 376.003906 615.492188 L 345.390625 615.492188 L 384.84375 570.78125 C 385.148438 570.4375 385.402344 570.0625 385.601562 569.652344 L 412.527344 517.40625 L 435.007812 523.828125 L 425.460938 546.953125 C 422.988281 552.886719 423.304688 559.710938 426.421875 565.363281 Z M 320.839844 595.316406 C 316.140625 600.632812 315.839844 605.144531 319.929688 608.707031 C 324.125 612.421875 332.054688 613.679688 335.589844 609.683594 L 376.003906 563.917969 L 406.46875 504.859375 C 409.144531 499.691406 410.457031 494.800781 410.863281 488.992188 L 414.195312 438.976562 C 414.433594 435.089844 418.5625 432.621094 422.128906 434.285156 L 451.226562 447.808594 C 456.78125 450.398438 462.792969 449.722656 467.644531 445.949219 L 496.335938 423.660156 C 496.335938 423.660156 496.335938 423.660156 496.335938 423.652344 C 500.832031 420.179688 501.640625 413.695312 498.15625 409.203125 C 494.722656 404.707031 488.253906 403.875 483.710938 407.34375 L 462.089844 424.054688 C 460.472656 425.328125 458.25 425.570312 456.378906 424.710938 L 422.53125 409.1875 L 395.960938 409.1875 C 393.433594 409.1875 391.109375 409.753906 388.988281 410.757812 L 388.988281 410.769531 C 384.003906 413.359375 380.597656 417.800781 380.148438 423.832031 L 374.1875 501.421875 C 373.832031 505.96875 372.976562 509.921875 371.507812 514.234375 L 358.730469 551.429688 C 358.527344 552.117188 358.121094 552.753906 357.667969 553.300781 Z M 357.515625 446.65625 C 356.65625 446.953125 355.847656 447.453125 355.242188 448.105469 L 335.691406 468.96875 C 331.808594 473.117188 325.1875 473.265625 321.09375 469.425781 C 317 465.539062 316.75 459.003906 320.636719 454.867188 L 339.53125 434.769531 L 369.335938 420.304688 C 369.183594 421.183594 369.082031 422.070312 368.984375 422.972656 L 367.417969 443.183594 Z M 297.097656 465.445312 L 306.695312 462.238281 C 306.894531 473.445312 315.632812 482.726562 326.953125 483.335938 L 323.414062 492.804688 Z M 336.296875 524.121094 L 299.117188 514.757812 L 290.53125 505.820312 L 293.257812 503.214844 C 295.480469 501.078125 295.53125 497.542969 293.410156 495.320312 C 291.289062 493.089844 287.699219 493.03125 285.527344 495.167969 L 282.800781 497.773438 L 274.210938 488.832031 L 266.28125 451.328125 L 267.191406 450.472656 L 337.207031 523.257812 Z M 291.285156 567.367188 L 221.320312 494.582031 L 256.835938 460.457031 L 263.605469 492.703125 C 263.804688 493.722656 264.3125 494.671875 265.019531 495.421875 L 274.769531 505.515625 L 273.707031 506.503906 C 270.140625 509.882812 272.503906 516.109375 277.597656 516.109375 C 279.929688 516.109375 281.007812 514.953125 282.496094 513.5625 L 292.199219 523.65625 C 292.90625 524.402344 293.8125 524.949219 294.824219 525.203125 L 326.800781 533.246094 Z M 403.890625 354.082031 C 414.753906 354.082031 423.644531 362.960938 423.644531 373.867188 C 423.644531 384.777344 414.75 393.65625 403.890625 393.65625 C 392.980469 393.65625 384.089844 384.777344 384.089844 373.867188 C 384.089844 362.960938 392.980469 354.082031 403.890625 354.082031 Z M 462.136719 497.597656 L 422.429688 483.574219 C 421.832031 492.722656 421.636719 498.453125 417.679688 507.261719 L 444.101562 514.808594 C 447.242188 515.710938 449.019531 519.207031 447.738281 522.3125 L 435.765625 551.222656 C 433.5625 556.511719 436.164062 562.582031 441.324219 564.683594 C 443 565.363281 444.789062 565.484375 446.578125 565.363281 C 449.867188 565.140625 453.425781 562.433594 454.8125 559.097656 L 471.53125 518.621094 C 475.066406 510.117188 470.828125 500.652344 462.136719 497.597656 Z M 601.71875 462.355469 L 588.378906 412.492188 C 588.296875 412.363281 587.871094 410.796875 587.015625 410.113281 C 587.015625 409.765625 585.296875 408.898438 585.296875 408.855469 C 583.964844 408.363281 583 408.15625 581.507812 408.539062 L 531.648438 421.902344 C 528.667969 422.703125 526.898438 425.757812 527.707031 428.738281 C 528.515625 431.71875 531.546875 433.488281 534.527344 432.6875 L 571.40625 422.8125 L 489.113281 565.363281 L 464.15625 565.363281 C 464.511719 564.710938 464.816406 564.054688 465.117188 563.367188 L 481.890625 522.886719 C 487.8125 508.523438 480.546875 492.238281 465.875 487.0625 L 423.1875 472.003906 L 424.804688 447.839844 L 446.527344 457.9375 C 455.875 462.292969 466.332031 461.105469 474.511719 454.765625 L 503.15625 432.492188 C 512.503906 425.25 514.269531 411.738281 506.996094 402.375 C 499.769531 393.003906 486.285156 391.269531 476.886719 398.507812 L 457.945312 413.15625 L 426.066406 398.527344 C 425.023438 398.035156 424.277344 398.019531 423.1875 398.019531 C 430.261719 392.34375 434.804688 383.628906 434.804688 373.867188 C 434.804688 356.804688 420.914062 342.917969 403.890625 342.917969 C 386.816406 342.917969 372.921875 356.804688 372.921875 373.867188 C 372.921875 384.617188 378.429688 394.097656 386.765625 399.648438 C 385.855469 399.976562 384.996094 400.355469 384.136719 400.769531 L 384.136719 400.726562 L 333.722656 425.179688 C 333.113281 425.472656 332.558594 425.886719 332.054688 426.378906 L 312.503906 447.222656 C 311.644531 448.144531 310.886719 449.117188 310.230469 450.140625 C 309.269531 449.921875 308.257812 449.960938 307.25 450.28125 L 288.507812 456.523438 L 271.382812 438.703125 C 269.203125 436.472656 265.6875 436.441406 263.453125 438.554688 L 209.550781 490.414062 C 207.328125 492.550781 207.277344 496.082031 209.398438 498.300781 L 287.144531 579.140625 C 289.285156 581.378906 292.851562 581.410156 295.027344 579.296875 L 348.980469 527.433594 C 351.203125 525.296875 351.253906 521.765625 349.128906 519.539062 L 331.953125 501.726562 L 338.925781 483.226562 C 339.28125 482.285156 339.378906 481.277344 339.226562 480.320312 C 340.894531 479.316406 342.460938 478.074219 343.824219 476.613281 L 362.46875 456.75 L 366.507812 455.34375 L 363.023438 500.566406 C 362.769531 504.179688 362.113281 507.179688 360.953125 510.609375 L 348.523438 546.761719 L 312.453125 587.941406 C 302.707031 599.03125 305.28125 609.320312 310.890625 615.492188 L 295.074219 615.492188 C 293.105469 615.492188 291.238281 616.554688 290.226562 618.28125 L 265.824219 660.597656 C 263.589844 664.445312 266.492188 668.980469 270.625 668.980469 C 272.597656 668.980469 274.464844 667.980469 275.476562 666.1875 L 298.308594 626.65625 L 379.238281 626.65625 C 381.257812 626.65625 383.078125 625.59375 384.089844 623.867188 L 411.417969 576.527344 L 492.296875 576.527344 C 494.316406 576.527344 496.136719 575.464844 497.148438 573.734375 L 581.054688 428.394531 L 590.957031 465.246094 C 591.769531 468.292969 594.886719 469.980469 597.777344 469.191406 C 600.757812 468.394531 602.527344 465.332031 601.71875 462.355469 Z M 601.71875 462.355469 "></path></g></g></svg>