<svg xmlns="http://www.w3.org/2000/svg" xmlns:xlink="http://www.w3.org/1999/xlink" width="1080" zoomAndPan="magnify" viewBox="0 0 810 1012.49997" height="1350" preserveAspectRatio="xMidYMid meet"><defs><clipPath id="961c93fe32"><path d="M 243.078125 348 L 566.921875 348 L 566.921875 560 L 243.078125 560 Z M 243.078125 348 "></path></clipPath><clipPath id="6e22d7e26b"><path d="M 285 576 L 372 576 L 372 664.960938 L 285 664.960938 Z M 285 576 "></path></clipPath><clipPath id="7ba66b66b7"><path d="M 380 576 L 467 576 L 467 664.960938 L 380 664.960938 Z M 380 576 "></path></clipPath><clipPath id="b90bc4081d"><path d="M 475 576 L 562 576 L 562 664.960938 L 475 664.960938 Z M 475 576 "></path></clipPath></defs><g id="c1edd5e1f6"><path style=" stroke:none;fill-rule:nonzero;fill:#725ac1;fill-opacity:1;" d="M 326.167969 394.613281 C 326.878906 395.324219 327.554688 396.070312 328.191406 396.847656 C 328.832031 397.625 329.429688 398.433594 329.988281 399.273438 C 330.550781 400.109375 331.066406 400.972656 331.539062 401.859375 C 332.015625 402.746094 332.445312 403.65625 332.832031 404.585938 C 333.214844 405.515625 333.554688 406.460938 333.847656 407.425781 C 334.140625 408.390625 334.382812 409.363281 334.578125 410.351562 C 334.777344 411.339844 334.921875 412.332031 335.023438 413.335938 C 335.121094 414.335938 335.171875 415.339844 335.171875 416.347656 C 335.171875 417.355469 335.121094 418.359375 335.023438 419.359375 C 334.921875 420.363281 334.777344 421.359375 334.578125 422.34375 C 334.382812 423.332031 334.140625 424.308594 333.847656 425.269531 C 333.554688 426.234375 333.214844 427.179688 332.832031 428.109375 C 332.445312 429.039062 332.015625 429.949219 331.539062 430.835938 C 331.066406 431.726562 330.550781 432.589844 329.988281 433.425781 C 329.429688 434.261719 328.832031 435.070312 328.191406 435.847656 C 327.554688 436.625 326.878906 437.371094 326.167969 438.082031 C 325.457031 438.792969 324.710938 439.46875 323.933594 440.109375 C 323.152344 440.746094 322.347656 441.347656 321.507812 441.90625 C 320.671875 442.464844 319.808594 442.980469 318.921875 443.457031 C 318.035156 443.929688 317.125 444.359375 316.195312 444.746094 C 315.265625 445.132812 314.320312 445.46875 313.355469 445.761719 C 312.390625 446.054688 311.417969 446.296875 310.429688 446.496094 C 309.441406 446.691406 308.449219 446.839844 307.445312 446.9375 C 306.445312 447.035156 305.441406 447.085938 304.433594 447.085938 C 303.425781 447.085938 302.421875 447.035156 301.421875 446.9375 C 300.417969 446.839844 299.421875 446.691406 298.4375 446.496094 C 297.449219 446.296875 296.472656 446.054688 295.511719 445.761719 C 294.546875 445.46875 293.601562 445.132812 292.671875 444.746094 C 291.738281 444.359375 290.832031 443.929688 289.941406 443.457031 C 289.054688 442.980469 288.191406 442.464844 287.355469 441.90625 C 286.519531 441.347656 285.710938 440.746094 284.933594 440.109375 C 284.15625 439.46875 283.410156 438.792969 282.699219 438.082031 C 281.988281 437.371094 281.3125 436.625 280.671875 435.847656 C 280.035156 435.070312 279.433594 434.261719 278.875 433.425781 C 278.316406 432.589844 277.800781 431.726562 277.324219 430.835938 C 276.851562 429.949219 276.421875 429.039062 276.035156 428.109375 C 275.648438 427.179688 275.3125 426.234375 275.019531 425.269531 C 274.726562 424.308594 274.484375 423.332031 274.285156 422.34375 C 274.089844 421.359375 273.941406 420.363281 273.84375 419.359375 C 273.746094 418.359375 273.695312 417.355469 273.695312 416.347656 C 273.695312 415.339844 273.746094 414.335938 273.84375 413.335938 C 273.941406 412.332031 274.089844 411.339844 274.285156 410.351562 C 274.484375 409.363281 274.726562 408.390625 275.019531 407.425781 C 275.3125 406.460938 275.648438 405.515625 276.035156 404.585938 C 276.421875 403.65625 276.851562 402.746094 277.324219 401.859375 C 277.800781 400.972656 278.316406 400.109375 278.875 399.273438 C 279.433594 398.433594 280.035156 397.625 280.671875 396.847656 C 281.3125 396.070312 281.988281 395.324219 282.699219 394.613281 C 283.410156 393.902344 284.15625 393.226562 284.933594 392.589844 C 285.710938 391.949219 286.519531 391.351562 287.355469 390.792969 C 288.191406 390.230469 289.054688 389.714844 289.941406 389.242188 C 290.832031 388.765625 291.738281 388.335938 292.671875 387.949219 C 293.601562 387.566406 294.546875 387.226562 295.511719 386.933594 C 296.472656 386.640625 297.449219 386.398438 298.4375 386.203125 C 299.421875 386.003906 300.417969 385.859375 301.421875 385.757812 C 302.421875 385.660156 303.425781 385.609375 304.433594 385.609375 C 305.441406 385.609375 306.445312 385.660156 307.445312 385.757812 C 308.449219 385.859375 309.441406 386.003906 310.429688 386.203125 C 311.417969 386.398438 312.390625 386.640625 313.355469 386.933594 C 314.320312 387.226562 315.265625 387.566406 316.195312 387.949219 C 317.125 388.335938 318.035156 388.765625 318.921875 389.242188 C 319.808594 389.714844 320.671875 390.230469 321.507812 390.792969 C 322.347656 391.351562 323.152344 391.949219 323.933594 392.589844 C 324.710938 393.226562 325.457031 393.902344 326.167969 394.613281 Z M 326.167969 394.613281 "></path><g clip-rule="nonzero" clip-path="url(#961c93fe32)"><path style=" stroke:none;fill-rule:nonzero;fill:#725ac1;fill-opacity:1;" d="M 564.113281 348.527344 L 367.492188 348.527344 C 365.785156 348.527344 364.445312 349.871094 364.445312 351.578125 L 364.445312 450.5 L 268.9375 450.5 C 261.070312 450.5 254.726562 456.902344 254.726562 464.769531 L 254.726562 522.828125 L 246.191406 522.828125 C 244.542969 522.828125 243.140625 524.171875 243.140625 525.878906 L 243.140625 556.003906 C 243.140625 557.714844 244.542969 559.054688 246.191406 559.054688 L 360.296875 559.054688 C 361.941406 559.054688 363.347656 557.714844 363.347656 556.003906 L 363.347656 525.878906 C 363.347656 524.171875 361.941406 522.828125 360.296875 522.828125 L 340.171875 522.828125 L 340.171875 478.980469 L 364.445312 478.980469 L 364.445312 500.507812 C 364.445312 502.214844 365.785156 503.558594 367.492188 503.558594 L 564.113281 503.558594 C 565.820312 503.558594 567.164062 502.214844 567.164062 500.507812 L 567.164062 351.578125 C 567.164062 349.871094 565.820312 348.527344 564.113281 348.527344 Z M 337.121094 472.878906 C 335.414062 472.878906 334.074219 474.222656 334.074219 475.929688 L 334.074219 522.828125 L 287.785156 522.828125 L 287.785156 486.296875 C 287.785156 484.589844 286.378906 483.25 284.734375 483.25 C 283.027344 483.25 281.683594 484.589844 281.683594 486.296875 L 281.683594 522.828125 L 260.828125 522.828125 L 260.828125 464.769531 C 260.828125 460.257812 264.425781 456.597656 268.9375 456.597656 L 379.996094 456.597656 C 384.449219 456.597656 388.105469 460.257812 388.105469 464.769531 C 388.105469 469.222656 384.449219 472.878906 379.996094 472.878906 Z M 561.066406 497.457031 L 370.542969 497.457031 L 370.542969 478.980469 L 379.996094 478.980469 C 387.800781 478.980469 394.207031 472.574219 394.207031 464.769531 C 394.207031 456.902344 387.800781 450.5 379.996094 450.5 L 370.542969 450.5 L 370.542969 354.628906 L 561.066406 354.628906 Z M 561.066406 497.457031 "></path></g><g clip-rule="nonzero" clip-path="url(#6e22d7e26b)"><path style=" stroke:none;fill-rule:nonzero;fill:#725ac1;fill-opacity:1;" d="M 349.074219 622.054688 C 353.34375 617.175781 356.027344 610.953125 356.027344 604.003906 C 356.027344 588.816406 343.707031 576.496094 328.582031 576.496094 C 313.457031 576.496094 301.078125 588.816406 301.078125 604.003906 C 301.078125 610.953125 303.761719 617.296875 308.09375 622.117188 C 294.308594 629.617188 285.585938 643.949219 285.585938 659.804688 L 285.585938 660.964844 C 285.585938 662.671875 286.929688 664.011719 288.636719 664.011719 L 368.46875 664.011719 C 370.175781 664.011719 371.519531 662.671875 371.519531 660.964844 L 371.519531 659.804688 C 371.519531 648.277344 367.066406 637.546875 358.953125 629.433594 C 356.148438 626.566406 352.796875 624.066406 349.074219 622.054688 Z M 291.746094 657.914062 C 292.417969 644.316406 300.53125 632.359375 312.910156 626.507812 C 317.363281 629.617188 322.730469 631.445312 328.582031 631.445312 C 334.378906 631.445312 339.742188 629.617188 344.195312 626.507812 C 348.097656 628.398438 351.699219 630.777344 354.625 633.703125 C 361.152344 640.230469 364.929688 648.765625 365.359375 657.914062 Z M 291.746094 657.914062 "></path></g><g clip-rule="nonzero" clip-path="url(#7ba66b66b7)"><path style=" stroke:none;fill-rule:nonzero;fill:#725ac1;fill-opacity:1;" d="M 444.214844 622.054688 C 448.484375 617.175781 451.167969 610.953125 451.167969 604.003906 C 451.167969 588.816406 438.847656 576.496094 423.660156 576.496094 C 408.476562 576.496094 396.21875 588.816406 396.21875 604.003906 C 396.21875 610.953125 398.902344 617.296875 403.171875 622.117188 C 389.449219 629.617188 380.667969 643.949219 380.667969 659.804688 L 380.667969 660.964844 C 380.667969 662.671875 382.070312 664.011719 383.714844 664.011719 L 463.546875 664.011719 C 465.253906 664.011719 466.597656 662.671875 466.597656 660.964844 L 466.597656 659.804688 C 466.597656 648.277344 462.144531 637.546875 454.09375 629.433594 C 451.226562 626.566406 447.875 624.066406 444.214844 622.054688 Z M 386.824219 657.914062 C 387.496094 644.316406 395.667969 632.359375 407.988281 626.507812 C 412.441406 629.617188 417.867188 631.445312 423.660156 631.445312 C 429.515625 631.445312 434.882812 629.617188 439.335938 626.507812 C 443.179688 628.398438 446.835938 630.777344 449.765625 633.703125 C 456.230469 640.230469 460.011719 648.765625 460.496094 657.914062 Z M 386.824219 657.914062 "></path></g><g clip-rule="nonzero" clip-path="url(#b90bc4081d)"><path style=" stroke:none;fill-rule:nonzero;fill:#725ac1;fill-opacity:1;" d="M 539.292969 622.054688 C 543.5625 617.175781 546.246094 610.953125 546.246094 604.003906 C 546.246094 588.816406 533.925781 576.496094 518.800781 576.496094 C 503.675781 576.496094 491.296875 588.816406 491.296875 604.003906 C 491.296875 610.953125 493.980469 617.296875 498.308594 622.117188 C 484.527344 629.617188 475.804688 643.949219 475.804688 659.804688 L 475.804688 660.964844 C 475.804688 662.671875 477.148438 664.011719 478.855469 664.011719 L 558.6875 664.011719 C 560.332031 664.011719 561.734375 662.671875 561.734375 660.964844 L 561.734375 659.804688 C 561.734375 648.277344 557.285156 637.546875 549.171875 629.433594 C 546.367188 626.566406 542.953125 624.066406 539.292969 622.054688 Z M 481.964844 657.914062 C 482.636719 644.316406 490.746094 632.359375 503.128906 626.507812 C 507.578125 629.617188 512.945312 631.445312 518.800781 631.445312 C 524.59375 631.445312 529.960938 629.617188 534.414062 626.507812 C 538.316406 628.398438 541.914062 630.777344 544.84375 633.703125 C 551.367188 640.230469 555.148438 648.765625 555.578125 657.914062 Z M 481.964844 657.914062 "></path></g><path style=" stroke:none;fill-rule:nonzero;fill:#725ac1;fill-opacity:1;" d="M 398.863281 382.949219 L 532.738281 382.949219 C 534.421875 382.949219 535.785156 381.582031 535.785156 379.898438 C 535.785156 378.21875 534.421875 376.851562 532.738281 376.851562 L 398.863281 376.851562 C 397.179688 376.851562 395.816406 378.21875 395.816406 379.898438 C 395.816406 381.582031 397.179688 382.949219 398.863281 382.949219 Z M 398.863281 382.949219 "></path><path style=" stroke:none;fill-rule:nonzero;fill:#725ac1;fill-opacity:1;" d="M 398.863281 412.84375 L 532.738281 412.84375 C 534.421875 412.84375 535.785156 411.480469 535.785156 409.796875 C 535.785156 408.113281 534.421875 406.746094 532.738281 406.746094 L 398.863281 406.746094 C 397.179688 406.746094 395.816406 408.113281 395.816406 409.796875 C 395.816406 411.480469 397.179688 412.84375 398.863281 412.84375 Z M 398.863281 412.84375 "></path><path style=" stroke:none;fill-rule:nonzero;fill:#725ac1;fill-opacity:1;" d="M 532.742188 436.636719 L 431.011719 436.636719 C 429.328125 436.636719 427.960938 438.003906 427.960938 439.6875 C 427.960938 441.367188 429.328125 442.734375 431.011719 442.734375 L 532.742188 442.734375 C 534.425781 442.734375 535.792969 441.367188 535.792969 439.6875 C 535.792969 438.003906 534.425781 436.636719 532.742188 436.636719 Z M 532.742188 436.636719 "></path><path style=" stroke:none;fill-rule:nonzero;fill:#725ac1;fill-opacity:1;" d="M 532.742188 466.527344 L 431.011719 466.527344 C 429.328125 466.527344 427.960938 467.890625 427.960938 469.574219 C 427.960938 471.257812 429.328125 472.625 431.011719 472.625 L 532.742188 472.625 C 534.425781 472.625 535.792969 471.257812 535.792969 469.574219 C 535.792969 467.890625 534.425781 466.527344 532.742188 466.527344 Z M 532.742188 466.527344 "></path></g></svg>