<svg xmlns="http://www.w3.org/2000/svg" xmlns:xlink="http://www.w3.org/1999/xlink" id="Calque_1" x="0px" y="0px" viewBox="0 0 194 121.5" style="enable-background:new 0 0 194 121.5;" xml:space="preserve">
<style type="text/css">
	.st0{fill:#E5DDF2;}
	.st1{fill:#0D0D0D;}
	.st2{opacity:0.559;fill:#0D0D0D;enable-background:new    ;}
	.st3{opacity:0.195;fill:#0D0D0D;enable-background:new    ;}
</style>
<g id="Groupe_658" transform="translate(-222.89 -270.787)">
	<g id="Groupe_656" transform="translate(222.89 270.787)">
		<path class="st0" d="M135.4,12.6H80.6C57.1,12.6,38,31.7,38,55.2c0,4.9,0.8,9.5,2.3,13.9c-3.4,2.7-5.5,6.9-5.5,11.5    c0,8.2,6.6,14.9,14.9,14.9c3.6,0,6.9-1.3,9.5-3.5c6.3,3.7,13.6,5.8,21.4,5.8h54.8c23.5,0,42.6-19.1,42.6-42.6    S158.9,12.6,135.4,12.6z"></path>
		<circle id="Ellipse_41" class="st0" cx="29" cy="99.2" r="6.9"></circle>
	</g>
	<g id="Groupe_657" transform="translate(269.466 302.14)">
		<circle id="Ellipse_42" class="st1" cx="32.9" cy="23.5" r="10.9"></circle>
		<circle id="Ellipse_43" class="st2" cx="61.4" cy="23.5" r="10.9"></circle>
		<circle id="Ellipse_44" class="st3" cx="89.9" cy="23.5" r="10.9"></circle>
	</g>
</g>
</svg>