<svg xmlns="http://www.w3.org/2000/svg" xmlns:xlink="http://www.w3.org/1999/xlink" id="Calque_1" x="0px" y="0px" viewBox="0 0 98 122.5" style="enable-background:new 0 0 98 122.5;" xml:space="preserve">
<style type="text/css">
	.st0{fill:#E5DDF2;}
	.st1{fill:#0D0D0D;}
</style>
<g id="Groupe_650" transform="translate(-284.88 -4494.736)">
	<g id="Groupe_652" transform="translate(284.88 4494.736)">
		<g id="Groupe_645" transform="translate(0)">
			<g id="Groupe_649" transform="translate(0 0)">
				<g id="Groupe_648" transform="translate(0 0)">
					<path id="Trac&#xE9;_376" class="st0" d="M50.7,19.2V28c-6.7,1.1-11.1,2.2-11.1,6.7c-3.3-1.1-6.7-3.3-7.8-6.7       c-1.1-1.1-3,0.7-4.5,1.1c1.1,3.3,1.1,5.6,1.1,10c-6.7,1.1-8.9-1.1-11.1-4.5c-2.2-1.1-6.7-1.1-8.9,1.1l-1.1,6.7l12.2,6.7       l3.3,8.9c0,2.2,4.4,4.4,4.4,7.8c-1.1,7.8-2.2,15.6-7.8,24.5c0,4.4,5.6,6.7,15.6,10l1.1-2.2c3.3,1.1,6.7,2.2,7.8,5.6h7.8       l1.1-5.6l6.7-4.4c5.6,0,7.8,5.6,15.6,5.6c4.4,0,11.1-5.6,11.1-10l-4.4-1.1c1.1-6.7,2.2-10,0-16.7l-6.6-2.2l11.1-13.3       c3.3-4.5,1.1-10,4.4-14.5c-3.3-3.3-13.3-6.7-20-7.8c-4.4-7.8-13.3-10-14.5-14.4L50.7,19.2z"></path>
				</g>
			</g>
		</g>
		<g id="Groupe_651" transform="translate(17.639 15.313)">
			<path id="Trac&#xE9;_377" class="st1" d="M25.5,59.4c-3.4,0-6.2,2.8-6.2,6.2c0,2.9,4.4,9.1,5.7,11c0.2,0.2,0.5,0.3,0.7,0.1     c0,0,0.1-0.1,0.1-0.1c1.4-1.9,5.7-8.1,5.7-11C31.7,62.2,28.9,59.4,25.5,59.4C25.5,59.4,25.5,59.4,25.5,59.4z M25.5,67.5     c-1.3,0-2.4-1.1-2.4-2.4s1.1-2.4,2.4-2.4s2.4,1.1,2.4,2.4C27.9,66.4,26.9,67.5,25.5,67.5C25.5,67.5,25.5,67.5,25.5,67.5     L25.5,67.5z"></path>
			<path id="Trac&#xE9;_378" class="st1" d="M13.1,33.4c-2.3,0-4.2,1.9-4.2,4.2c0,1.9,3,6.2,3.9,7.4c0.1,0.2,0.3,0.2,0.5,0.1     c0,0,0.1,0,0.1-0.1c0.9-1.3,3.9-5.5,3.9-7.4C17.3,35.3,15.4,33.4,13.1,33.4C13.1,33.4,13.1,33.4,13.1,33.4z M13.1,38.9     c-0.9,0-1.6-0.7-1.6-1.6l0,0c0-0.9,0.7-1.6,1.6-1.6l0,0c0.9,0,1.6,0.7,1.6,1.6l0,0C14.7,38.2,14,38.9,13.1,38.9L13.1,38.9z"></path>
			<path id="Trac&#xE9;_379" class="st1" d="M51.7,55.9c-2.4,0-4.3,1.9-4.3,4.3c0,2,3.1,6.4,4,7.7c0.1,0.2,0.3,0.2,0.5,0.1     c0,0,0.1,0,0.1-0.1c1-1.3,4-5.7,4-7.7C56.1,57.8,54.1,55.9,51.7,55.9C51.7,55.9,51.7,55.9,51.7,55.9z M51.7,61.6     c-0.9,0-1.7-0.8-1.7-1.7l0,0c0-0.9,0.8-1.7,1.7-1.7l0,0c0.9,0,1.7,0.8,1.7,1.7l0,0C53.4,60.8,52.7,61.6,51.7,61.6     C51.7,61.6,51.7,61.6,51.7,61.6L51.7,61.6z"></path>
			<path id="Trac&#xE9;_382" class="st1" d="M11,51.6c-2,0-3.7,1.7-3.7,3.7l0,0c0,1.7,2.6,5.4,3.4,6.6c0.1,0.1,0.3,0.2,0.4,0.1     c0,0,0.1,0,0.1-0.1c0.8-1.1,3.4-4.9,3.4-6.6C14.7,53.2,13,51.6,11,51.6L11,51.6z M11,56.5c-0.8,0-1.4-0.6-1.4-1.4l0,0     c0-0.8,0.6-1.4,1.4-1.4l0,0c0.8,0,1.4,0.6,1.4,1.4l0,0C12.5,55.8,11.8,56.5,11,56.5L11,56.5z"></path>
			<path id="Trac&#xE9;_380" class="st1" d="M37.8,19.2c-3.4,0-6.2,2.8-6.2,6.2c0,2.9,4.4,9.1,5.7,11c0.2,0.2,0.5,0.3,0.7,0.1     c0,0,0.1-0.1,0.1-0.1c1.4-1.9,5.7-8.1,5.7-11C44,21.9,41.2,19.2,37.8,19.2C37.8,19.2,37.8,19.2,37.8,19.2z M37.8,27.3     c-1.3,0-2.4-1.1-2.4-2.4s1.1-2.4,2.4-2.4s2.4,1.1,2.4,2.4C40.3,26.2,39.2,27.3,37.8,27.3C37.8,27.3,37.8,27.3,37.8,27.3     L37.8,27.3z"></path>
			<path id="Trac&#xE9;_381" class="st1" d="M55.4,31.3c-2,0-3.6,1.6-3.6,3.6c0,0,0,0,0,0c0,1.7,2.6,5.3,3.4,6.5     c0.1,0.1,0.3,0.2,0.4,0.1c0,0,0,0,0.1-0.1c0.8-1.1,3.4-4.8,3.4-6.5C59,32.9,57.4,31.3,55.4,31.3L55.4,31.3z M55.4,36.1     c-0.8,0-1.4-0.6-1.4-1.4s0.6-1.4,1.4-1.4s1.4,0.6,1.4,1.4S56.1,36.1,55.4,36.1z"></path>
		</g>
	</g>
</g>
</svg>