<svg xmlns="http://www.w3.org/2000/svg" xmlns:xlink="http://www.w3.org/1999/xlink" id="Calque_1" x="0px" y="0px" viewBox="0 0 98 122.5" style="enable-background:new 0 0 98 122.5;" xml:space="preserve">
<style type="text/css">
	.st0{fill:#E5DDF2;}
	.st1{fill:#0D0D0D;}
</style>
<g id="Groupe_654" transform="translate(744.82 0.824)">
	<path id="Trac&#xE9;_385" class="st0" d="M-669.2,23.7h-53.2c-2.4,0-4.4,2-4.4,4.4V93c0,2.4,2,4.4,4.4,4.4h53.1c2.4,0,4.4-2,4.4-4.4   V28.1C-664.8,25.7-666.7,23.8-669.2,23.7C-669.2,23.7-669.2,23.7-669.2,23.7z"></path>
	<path id="Trac&#xE9;_386" class="st1" d="M-708,81.2l-5.7,5.7c-0.5,0.6-1.3,0.6-1.9,0.1c0,0-0.1-0.1-0.1-0.1l-2.9-2.8   c-0.6-0.6-0.6-1.5,0-2c0.6-0.6,1.5-0.6,2,0l0,0l1.8,1.8l4.7-4.7c0.6-0.6,1.5-0.6,2,0S-707.5,80.7-708,81.2L-708,81.2z"></path>
	<path id="Trac&#xE9;_387" class="st1" d="M-708,67.1l-5.7,5.7c-0.5,0.6-1.3,0.6-1.9,0.1c0,0-0.1-0.1-0.1-0.1l-2.9-2.8   c-0.6-0.6-0.6-1.5,0-2c0.6-0.6,1.5-0.6,2,0l1.8,1.8l4.7-4.7c0.6-0.6,1.5-0.6,2,0S-707.5,66.5-708,67.1L-708,67.1z"></path>
	<path id="Trac&#xE9;_388" class="st1" d="M-708,52.8l-5.7,5.7c-0.5,0.6-1.3,0.6-1.9,0.1c0,0-0.1-0.1-0.1-0.1l-2.9-2.8   c-0.6-0.6-0.6-1.5,0-2c0.6-0.6,1.5-0.6,2,0l1.8,1.8l4.7-4.7c0.6-0.6,1.5-0.6,2,0C-707.5,51.3-707.5,52.2-708,52.8L-708,52.8z"></path>
	<path id="Trac&#xE9;_389" class="st1" d="M-708,38.6l-5.7,5.7c-0.5,0.6-1.3,0.6-1.9,0.1c0,0-0.1-0.1-0.1-0.1l-2.9-2.8   c-0.6-0.6-0.6-1.5,0-2c0.6-0.6,1.5-0.6,2,0l0,0l1.8,1.8l4.7-4.7c0.6-0.6,1.5-0.6,2,0C-707.5,37.2-707.5,38.1-708,38.6L-708,38.6z"></path>
	<path id="Trac&#xE9;_390" class="st1" d="M-672,84.3h-26.9c-1,0-1.9-0.7-2.1-1.7c-0.2-1.1,0.6-2.1,1.7-2.3c0.1,0,0.2,0,0.3,0h26.9   c1,0,1.9,0.7,2.1,1.7c0.2,1.1-0.6,2.1-1.7,2.3C-671.8,84.3-671.9,84.3-672,84.3z"></path>
	<path id="Trac&#xE9;_391" class="st1" d="M-672,70.4h-26.9c-1,0-1.9-0.7-2.1-1.7c-0.2-1.1,0.6-2.1,1.7-2.3c0.1,0,0.2,0,0.3,0h26.9   c1,0,1.9,0.7,2.1,1.7c0.2,1.1-0.6,2.1-1.7,2.3C-671.8,70.4-671.9,70.4-672,70.4z"></path>
	<path id="Trac&#xE9;_392" class="st1" d="M-672,56.3h-26.9c-1,0-1.9-0.7-2.1-1.7c-0.2-1.1,0.6-2.1,1.7-2.3c0.1,0,0.2,0,0.3,0h26.9   c1,0,1.9,0.7,2.1,1.7c0.2,1.1-0.5,2.1-1.6,2.3C-671.7,56.3-671.8,56.3-672,56.3z"></path>
	<path id="Trac&#xE9;_393" class="st1" d="M-672,42.2h-26.9c-1,0-1.9-0.7-2.1-1.7c-0.2-1.1,0.6-2.1,1.7-2.3c0.1,0,0.2,0,0.3,0h26.9   c1,0,1.9,0.7,2.1,1.7c0.2,1.1-0.5,2.1-1.6,2.3C-671.7,42.2-671.8,42.2-672,42.2z"></path>
</g>
</svg>