<svg xmlns="http://www.w3.org/2000/svg" xmlns:xlink="http://www.w3.org/1999/xlink" id="Calque_1" x="0px" y="0px" viewBox="0 0 98 122.5" style="enable-background:new 0 0 98 122.5;" xml:space="preserve">
<style type="text/css">
	.st0{fill:#E5DDF2;}
</style>
<g id="Groupe_653" transform="translate(379.486 10.743)">
	<path id="Trac&#xE9;_383" class="st0" d="M-296.1,31.3c-4.9-8.4-12.9-14.6-22.4-17c-0.3,0-0.5-0.1-0.8-0.2c-10.5-2.8-21.7-0.8-30.5,5.5   c-1.5,1-1.9,3.1-0.9,4.6c1,1.5,3.1,1.9,4.6,0.9c0,0,0,0,0.1,0l0,0c7.3-5.1,16.4-6.8,25-4.5c0.3,0,0.5,0.1,0.8,0.2   c16.1,4.2,25.7,20.7,21.4,36.7s-20.7,25.7-36.7,21.4c-15.5-4.1-25-19.5-21.8-35.2l0.9,1.5c0.9,1.6,3,2.1,4.6,1.2   c1.5-0.9,2.1-2.9,1.2-4.5l-4.9-8.6c-0.9-1.6-3-2.2-4.6-1.3l0,0l-8.6,4.9c-1.6,0.9-2.2,2.9-1.4,4.5c0.9,1.6,2.9,2.2,4.5,1.4   c0,0,0.1,0,0.1-0.1l1.7-1c-4.4,19.8,8.1,39.4,27.9,43.8c19.8,4.4,39.4-8.1,43.8-27.9C-290,48.7-291.5,39.3-296.1,31.3L-296.1,31.3z   "></path>
	<path id="Trac&#xE9;_384" class="st0" d="M-327.7,28.8c-1.8,0-3.3,1.5-3.3,3.3l0,0v17.6c0,0.2,0,0.4,0.1,0.7c0,0.1,0.1,0.2,0.1,0.3   c0.1,0.2,0.1,0.5,0.3,0.7c0,0.1,0.1,0.2,0.1,0.3c0.1,0.2,0.3,0.4,0.4,0.5l8.1,8.1c1.3,1.3,3.4,1.3,4.7,0c1.3-1.3,1.3-3.4,0-4.7l0,0   l-7.1-7.1V32.2C-324.4,30.3-325.9,28.8-327.7,28.8z"></path>
</g>
</svg>