<svg xmlns="http://www.w3.org/2000/svg" xmlns:xlink="http://www.w3.org/1999/xlink" width="1080" zoomAndPan="magnify" viewBox="0 0 810 1012.49997" height="1350" preserveAspectRatio="xMidYMid meet"><defs><clipPath id="a405a5fff9"><path d="M 223.160156 350.78125 L 468 350.78125 L 468 661.035156 L 223.160156 661.035156 Z M 223.160156 350.78125 "></path></clipPath><clipPath id="01730d9bf3"><path d="M 496 537 L 586.644531 537 L 586.644531 661.039062 L 496 661.039062 Z M 496 537 "></path></clipPath></defs><g id="dabbb7ac1c"><g clip-rule="nonzero" clip-path="url(#a405a5fff9)"><path style=" stroke:none;fill-rule:nonzero;fill:#725ac1;fill-opacity:1;" d="M 464.460938 661.027344 L 226.347656 661.027344 C 224.585938 661.027344 223.160156 659.601562 223.160156 657.839844 L 223.160156 353.96875 C 223.160156 352.207031 224.585938 350.777344 226.347656 350.777344 L 464.460938 350.777344 C 466.222656 350.777344 467.648438 352.207031 467.648438 353.96875 L 467.648438 395.949219 C 467.648438 397.710938 466.222656 399.136719 464.460938 399.136719 C 462.699219 399.136719 461.273438 397.710938 461.273438 395.949219 L 461.273438 357.15625 L 229.535156 357.15625 L 229.535156 654.652344 L 461.273438 654.652344 L 461.273438 536.164062 C 461.273438 534.402344 462.699219 532.972656 464.460938 532.972656 C 466.222656 532.972656 467.648438 534.402344 467.648438 536.164062 L 467.648438 657.839844 C 467.648438 659.601562 466.222656 661.027344 464.460938 661.027344 "></path></g><path style=" stroke:none;fill-rule:nonzero;fill:#725ac1;fill-opacity:1;" d="M 259.421875 510.1875 L 373.941406 510.1875 L 373.941406 385.050781 L 259.421875 385.050781 Z M 377.128906 516.5625 L 256.234375 516.5625 C 254.476562 516.5625 253.046875 515.136719 253.046875 513.375 L 253.046875 381.863281 C 253.046875 380.101562 254.476562 378.675781 256.234375 378.675781 L 377.128906 378.675781 C 378.890625 378.675781 380.316406 380.101562 380.316406 381.863281 L 380.316406 513.375 C 380.316406 515.136719 378.890625 516.5625 377.128906 516.5625 "></path><path style=" stroke:none;fill-rule:nonzero;fill:#725ac1;fill-opacity:1;" d="M 368.796875 545.453125 L 256.234375 545.453125 C 254.476562 545.453125 253.046875 544.027344 253.046875 542.265625 C 253.046875 540.503906 254.476562 539.078125 256.234375 539.078125 L 368.796875 539.078125 C 370.558594 539.078125 371.984375 540.503906 371.984375 542.265625 C 371.984375 544.027344 370.558594 545.453125 368.796875 545.453125 "></path><path style=" stroke:none;fill-rule:nonzero;fill:#725ac1;fill-opacity:1;" d="M 341.917969 574.351562 L 256.234375 574.351562 C 254.476562 574.351562 253.046875 572.921875 253.046875 571.160156 C 253.046875 569.402344 254.476562 567.96875 256.234375 567.96875 L 341.917969 567.96875 C 343.675781 567.96875 345.105469 569.402344 345.105469 571.160156 C 345.105469 572.921875 343.675781 574.351562 341.917969 574.351562 "></path><path style=" stroke:none;fill-rule:nonzero;fill:#725ac1;fill-opacity:1;" d="M 390.714844 603.242188 L 256.234375 603.242188 C 254.476562 603.242188 253.046875 601.816406 253.046875 600.054688 C 253.046875 598.292969 254.476562 596.867188 256.234375 596.867188 L 390.714844 596.867188 C 392.476562 596.867188 393.90625 598.292969 393.90625 600.054688 C 393.90625 601.816406 392.476562 603.242188 390.714844 603.242188 "></path><path style=" stroke:none;fill-rule:nonzero;fill:#725ac1;fill-opacity:1;" d="M 419.628906 632.136719 L 256.234375 632.136719 C 254.476562 632.136719 253.046875 630.707031 253.046875 628.945312 C 253.046875 627.1875 254.476562 625.757812 256.234375 625.757812 L 419.628906 625.757812 C 421.390625 625.757812 422.820312 627.1875 422.820312 628.945312 C 422.820312 630.707031 421.390625 632.136719 419.628906 632.136719 "></path><path style=" stroke:none;fill-rule:nonzero;fill:#725ac1;fill-opacity:1;" d="M 430.699219 405.339844 L 432.289062 408.101562 C 400.332031 426.550781 389.34375 467.5625 407.796875 499.519531 C 416.730469 515 431.164062 526.070312 448.433594 530.699219 C 465.699219 535.324219 483.730469 532.953125 499.210938 524.011719 C 514.691406 515.074219 525.769531 500.644531 530.394531 483.375 C 535.019531 466.109375 532.644531 448.078125 523.710938 432.597656 C 514.769531 417.117188 500.339844 406.039062 483.074219 401.414062 C 465.808594 396.785156 447.769531 399.160156 432.289062 408.101562 Z M 465.871094 539.386719 C 459.503906 539.386719 453.097656 538.550781 446.78125 536.855469 C 427.871094 531.789062 412.0625 519.664062 402.273438 502.707031 C 382.0625 467.703125 394.097656 422.785156 429.101562 402.578125 C 446.058594 392.789062 465.8125 390.191406 484.722656 395.253906 C 503.636719 400.320312 519.441406 412.453125 529.230469 429.410156 C 539.019531 446.363281 541.621094 466.117188 536.554688 485.027344 C 531.488281 503.9375 519.355469 519.746094 502.398438 529.535156 C 491.105469 536.054688 478.570312 539.386719 465.871094 539.386719 "></path><path style=" stroke:none;fill-rule:nonzero;fill:#725ac1;fill-opacity:1;" d="M 440.046875 421.53125 L 440.050781 421.53125 Z M 465.675781 417.808594 C 457.316406 417.808594 449.070312 420 441.636719 424.289062 C 430.484375 430.730469 422.5 441.128906 419.167969 453.574219 C 415.835938 466.015625 417.546875 479.011719 423.988281 490.171875 C 430.429688 501.324219 440.828125 509.308594 453.269531 512.640625 C 465.710938 515.972656 478.707031 514.261719 489.863281 507.820312 C 501.019531 501.378906 509 490.980469 512.335938 478.539062 C 515.667969 466.09375 513.957031 453.097656 507.519531 441.945312 C 501.078125 430.789062 490.675781 422.808594 478.234375 419.472656 C 474.078125 418.363281 469.863281 417.808594 465.675781 417.808594 Z M 465.839844 520.683594 C 461.097656 520.683594 456.324219 520.058594 451.621094 518.800781 C 437.53125 515.023438 425.757812 505.988281 418.464844 493.359375 C 411.171875 480.730469 409.234375 466.011719 413.007812 451.925781 C 416.785156 437.835938 425.820312 426.0625 438.449219 418.769531 C 451.082031 411.476562 465.796875 409.539062 479.882812 413.316406 C 493.972656 417.089844 505.746094 426.125 513.039062 438.757812 C 520.332031 451.386719 522.269531 466.101562 518.492188 480.1875 C 514.71875 494.277344 505.683594 506.054688 493.050781 513.34375 C 484.640625 518.199219 475.300781 520.683594 465.839844 520.683594 "></path><path style=" stroke:none;fill-rule:nonzero;fill:#725ac1;fill-opacity:1;" d="M 494.613281 533.4375 L 504.386719 550.367188 L 519.445312 541.667969 L 509.675781 524.742188 C 507.347656 526.480469 504.910156 528.085938 502.398438 529.535156 C 499.894531 530.984375 497.289062 532.289062 494.613281 533.4375 Z M 503.21875 557.910156 C 502.941406 557.910156 502.664062 557.875 502.394531 557.800781 C 501.574219 557.582031 500.882812 557.046875 500.457031 556.3125 L 487.25 533.4375 C 486.78125 532.625 486.695312 531.644531 487.011719 530.761719 C 487.332031 529.875 488.023438 529.179688 488.902344 528.855469 C 492.464844 527.535156 495.933594 525.90625 499.210938 524.011719 C 502.496094 522.117188 505.640625 519.929688 508.558594 517.507812 C 509.28125 516.90625 510.234375 516.65625 511.15625 516.820312 C 512.082031 516.988281 512.886719 517.550781 513.355469 518.367188 L 526.5625 541.242188 C 527.441406 542.769531 526.921875 544.71875 525.394531 545.597656 L 504.8125 557.480469 C 504.324219 557.761719 503.773438 557.910156 503.21875 557.910156 "></path><g clip-rule="nonzero" clip-path="url(#01730d9bf3)"><path style=" stroke:none;fill-rule:nonzero;fill:#725ac1;fill-opacity:1;" d="M 503.570312 558.199219 L 555.417969 648.003906 C 559.09375 654.363281 567.253906 656.550781 573.617188 652.878906 C 579.972656 649.207031 582.160156 641.046875 578.488281 634.6875 L 526.636719 544.878906 Z M 575.207031 655.640625 L 575.21875 655.640625 Z M 566.988281 661.035156 C 560.175781 661.035156 553.546875 657.503906 549.898438 651.191406 L 496.453125 558.625 C 495.574219 557.097656 496.097656 555.148438 497.621094 554.269531 L 526.210938 537.765625 C 526.941406 537.339844 527.8125 537.226562 528.628906 537.445312 C 529.445312 537.664062 530.144531 538.199219 530.566406 538.933594 L 584.011719 631.5 C 589.441406 640.90625 586.207031 652.972656 576.800781 658.402344 C 573.710938 660.1875 570.328125 661.035156 566.988281 661.035156 "></path></g><path style=" stroke:none;fill-rule:nonzero;fill:#725ac1;fill-opacity:1;" d="M 560.839844 633.933594 C 559.738281 633.933594 558.664062 633.363281 558.074219 632.339844 L 525.125 575.265625 C 524.242188 573.742188 524.761719 571.792969 526.289062 570.914062 C 527.8125 570.027344 529.765625 570.550781 530.644531 572.078125 L 563.597656 629.152344 C 564.476562 630.679688 563.953125 632.628906 562.429688 633.507812 C 561.925781 633.800781 561.378906 633.933594 560.839844 633.933594 "></path><path style=" stroke:none;fill-rule:nonzero;fill:#725ac1;fill-opacity:1;" d="M 275.035156 510.1875 L 358.332031 510.1875 L 358.332031 487.296875 C 358.332031 474.675781 348.0625 464.410156 335.4375 464.410156 L 332.570312 464.410156 C 330.746094 471.515625 324.265625 476.734375 316.683594 476.734375 C 309.101562 476.734375 302.621094 471.515625 300.800781 464.410156 L 297.925781 464.410156 C 285.304688 464.410156 275.035156 474.675781 275.035156 487.296875 Z M 361.519531 516.5625 L 271.847656 516.5625 C 270.085938 516.5625 268.660156 515.136719 268.660156 513.375 L 268.660156 487.296875 C 268.660156 471.15625 281.789062 458.03125 297.925781 458.03125 L 303.503906 458.03125 C 305.183594 458.03125 306.574219 459.332031 306.6875 461.007812 C 307.03125 466.25 311.425781 470.355469 316.683594 470.355469 C 321.945312 470.355469 326.335938 466.25 326.683594 461.007812 C 326.796875 459.332031 328.1875 458.03125 329.863281 458.03125 L 335.4375 458.03125 C 351.578125 458.03125 364.707031 471.15625 364.707031 487.296875 L 364.707031 513.375 C 364.707031 515.136719 363.277344 516.5625 361.519531 516.5625 "></path><path style=" stroke:none;fill-rule:nonzero;fill:#725ac1;fill-opacity:1;" d="M 303.507812 464.40625 C 301.746094 464.40625 300.320312 462.976562 300.320312 461.21875 L 300.320312 452.363281 C 300.320312 450.597656 301.746094 449.171875 303.507812 449.171875 C 305.269531 449.171875 306.695312 450.597656 306.695312 452.363281 L 306.695312 461.21875 C 306.695312 462.976562 305.269531 464.40625 303.507812 464.40625 "></path><path style=" stroke:none;fill-rule:nonzero;fill:#725ac1;fill-opacity:1;" d="M 329.867188 464.40625 C 328.105469 464.40625 326.679688 462.976562 326.679688 461.21875 L 326.679688 451.125 C 326.679688 449.367188 328.105469 447.933594 329.867188 447.933594 C 331.625 447.933594 333.050781 449.367188 333.050781 451.125 L 333.050781 461.21875 C 333.050781 462.976562 331.625 464.40625 329.867188 464.40625 "></path><path style=" stroke:none;fill-rule:nonzero;fill:#725ac1;fill-opacity:1;" d="M 316.683594 464.035156 C 316.230469 464.035156 315.769531 463.933594 315.347656 463.742188 C 296.023438 454.796875 290.265625 441.453125 288.835938 431.832031 C 288.578125 430.089844 289.777344 428.46875 291.519531 428.207031 C 293.265625 427.949219 294.882812 429.152344 295.144531 430.894531 C 296.824219 442.199219 304.03125 451.066406 316.589844 457.265625 C 331.105469 449.078125 335.429688 438.480469 336.476562 430.925781 C 336.714844 429.183594 338.324219 427.960938 340.070312 428.207031 C 341.816406 428.445312 343.03125 430.054688 342.792969 431.800781 C 341.511719 441.066406 336.199219 454.117188 318.175781 463.664062 C 317.714844 463.910156 317.199219 464.035156 316.683594 464.035156 "></path><path style=" stroke:none;fill-rule:nonzero;fill:#725ac1;fill-opacity:1;" d="M 332.855469 413.535156 C 333.113281 413.535156 333.371094 413.566406 333.625 413.628906 C 334.5625 413.863281 335.34375 414.507812 335.75 415.382812 L 338.617188 421.582031 C 339.183594 415.339844 338.070312 407.042969 330.160156 401.425781 C 323.984375 397.035156 311.734375 395.566406 305.203125 400.253906 C 301.203125 403.128906 298.433594 404.25 294.035156 402.6875 C 292.847656 405.804688 291.449219 411.835938 292.898438 421.171875 C 294.945312 417.101562 298.066406 413.269531 304 412.917969 C 310.085938 412.5625 313.371094 413.617188 318.425781 416.121094 C 321.691406 417.738281 327.417969 416.855469 330.925781 414.1875 C 331.488281 413.757812 332.167969 413.535156 332.855469 413.535156 Z M 291.988281 434.554688 C 291.894531 434.554688 291.796875 434.546875 291.703125 434.539062 C 290.40625 434.421875 289.3125 433.53125 288.9375 432.285156 C 283.921875 415.667969 286.257812 405.144531 288.101562 400.355469 C 288.972656 398.085938 289.796875 396.886719 289.953125 396.667969 C 290.878906 395.382812 292.613281 394.96875 294.019531 395.707031 C 297.828125 397.703125 298.316406 397.351562 301.488281 395.074219 C 310.496094 388.605469 325.777344 390.492188 333.855469 396.226562 C 348.273438 406.472656 345.871094 424.476562 342.585938 432.5625 C 342.109375 433.738281 340.976562 434.519531 339.710938 434.550781 C 338.441406 434.566406 337.273438 433.855469 336.738281 432.703125 L 331.441406 421.257812 C 326.746094 423.460938 320.515625 424.269531 315.597656 421.835938 C 311.179688 419.644531 309.054688 419.007812 304.375 419.285156 C 300.417969 419.519531 298.9375 422.796875 296.84375 428.132812 C 296.226562 429.699219 295.589844 431.320312 294.828125 432.8125 C 294.28125 433.886719 293.179688 434.554688 291.988281 434.554688 "></path></g></svg>